<?xml version="1.0" ?><!-- Uploaded to: SVG Repo, www.svgrepo.com, Generator: SVG Repo Mixer Tools -->
<svg width="800px" height="800px" viewBox="0 0 50 50" data-name="Layer 1" id="Layer_1" xmlns="http://www.w3.org/2000/svg"><defs><style>.cls-1{fill:#231f20;}.cls-2{fill:#ffffff;}.cls-3{fill:#00a1d3;}.cls-4{fill:#f7d2d0;}.cls-5{fill:#c6b9c4;}.cls-6{fill:#ff8e5a;}</style></defs><title/><path class="cls-1" d="M45.5,18.207a.5.5,0,0,0-.146-.353L42.2,14.7a.5.5,0,0,0-.707,0L33.22,22.969V7a2.5,2.5,0,0,0-2.5-2.5H7A2.5,2.5,0,0,0,4.5,7V43A2.5,2.5,0,0,0,7,45.5H30.72a2.5,2.5,0,0,0,2.5-2.5V30.694L45.354,18.561A.5.5,0,0,0,45.5,18.207Z"/><path class="cls-2" d="M27.008,29.182a.5.5,0,0,0-.1.152l-2.2,5.011a.758.758,0,0,0,.109.9.717.717,0,0,0,.511.208.773.773,0,0,0,.358-.088l3.687-1.62v7.936H8.073V8.321h4.241a3.178,3.178,0,0,0,2.7,1.517H22.7a3.178,3.178,0,0,0,2.7-1.517h3.96v18.5Z"/><path class="cls-3" d="M32.22,43a1.5,1.5,0,0,1-1.5,1.5H7A1.5,1.5,0,0,1,5.5,43V7A1.5,1.5,0,0,1,7,5.5h4.829V6.65a3.15,3.15,0,0,0,.074.671H7.573a.5.5,0,0,0-.5.5V42.179a.5.5,0,0,0,.5.5H29.866a.5.5,0,0,0,.5-.5V33.3l.352-.155a.5.5,0,0,0,.153-.1l1.349-1.35Z"/><path class="cls-1" d="M18.525,15.813H27.7a.5.5,0,0,0,0-1H18.525a.5.5,0,0,0,0,1Z"/><path class="cls-1" d="M14.083,14.131,12.934,15.28l-.443-.443a.5.5,0,1,0-.707.707l.8.8a.5.5,0,0,0,.707,0l1.5-1.5a.5.5,0,0,0-.707-.707Z"/><path class="cls-1" d="M13.1,11.735a3.577,3.577,0,1,0,3.576,3.578A3.582,3.582,0,0,0,13.1,11.735Zm0,6.154a2.577,2.577,0,1,1,2.576-2.576A2.58,2.58,0,0,1,13.1,17.889Z"/><path class="cls-1" d="M27.7,24.5H18.525a.5.5,0,0,0,0,1H27.7a.5.5,0,0,0,0-1Z"/><path class="cls-1" d="M14.083,23.818l-1.149,1.15-.443-.444a.5.5,0,1,0-.707.707l.8.8a.5.5,0,0,0,.707,0l1.5-1.5a.5.5,0,0,0-.707-.707Z"/><path class="cls-1" d="M13.1,21.424A3.576,3.576,0,1,0,16.675,25,3.581,3.581,0,0,0,13.1,21.424Zm0,6.152A2.576,2.576,0,1,1,15.675,25,2.579,2.579,0,0,1,13.1,27.576Z"/><path class="cls-1" d="M22.452,34.188H18.525a.5.5,0,0,0,0,1h3.927a.5.5,0,0,0,0-1Z"/><path class="cls-1" d="M14.083,33.507l-1.149,1.148-.443-.442a.5.5,0,1,0-.707.707l.8.8a.5.5,0,0,0,.707,0l1.5-1.5a.5.5,0,0,0-.707-.707Z"/><path class="cls-1" d="M13.1,31.111a3.577,3.577,0,1,0,3.576,3.577A3.582,3.582,0,0,0,13.1,31.111Zm0,6.154a2.577,2.577,0,1,1,2.576-2.577A2.581,2.581,0,0,1,13.1,37.265Z"/><path class="cls-3" d="M32.22,7V23.968h0l-1.854,1.854v-18a.5.5,0,0,0-.5-.5H25.818a3.215,3.215,0,0,0,.074-.671V5.5H30.72A1.5,1.5,0,0,1,32.22,7Z"/><polygon class="cls-4" points="28.053 33.228 26.824 31.998 27.604 30.224 29.827 32.448 28.053 33.228"/><polygon class="cls-3" points="26.393 32.98 27.071 33.66 25.86 34.192 26.393 32.98"/><path class="cls-5" d="M24.892,6.65A2.191,2.191,0,0,1,22.7,8.838H15.016A2.19,2.19,0,0,1,12.829,6.65V5.5H24.892Z"/><rect class="cls-6" height="3.463" transform="translate(-6.217 32.602) rotate(-45)" width="19.298" x="26.597" y="22.074"/></svg>