<?xml version="1.0" encoding="UTF-8" standalone="no"?>
<!-- Uploaded to: SVG Repo, www.svgrepo.com, Generator: SVG Repo Mixer Tools -->
<svg 
   viewBox="0 0 600 600"
   version="1.1"
   id="svg9724"
   sodipodi:docname="check-circle.svg"
   inkscape:version="1.2.2 (1:1.2.2+202212051550+b0a8486541)"
   width="600"
   height="600"
   xmlns:inkscape="http://www.inkscape.org/namespaces/inkscape"
   xmlns:sodipodi="http://sodipodi.sourceforge.net/DTD/sodipodi-0.dtd"
   xmlns="http://www.w3.org/2000/svg"
   xmlns:svg="http://www.w3.org/2000/svg">
  <defs
     id="defs9728" />
  <sodipodi:namedview
     id="namedview9726"
     pagecolor="#ffffff"
     bordercolor="#666666"
     borderopacity="1.0"
     inkscape:showpageshadow="2"
     inkscape:pageopacity="0.0"
     inkscape:pagecheckerboard="0"
     inkscape:deskcolor="#d1d1d1"
     showgrid="true"
     inkscape:zoom="0.42059315"
     inkscape:cx="175.942"
     inkscape:cy="626.49618"
     inkscape:window-width="1920"
     inkscape:window-height="1009"
     inkscape:window-x="0"
     inkscape:window-y="1080"
     inkscape:window-maximized="1"
     inkscape:current-layer="g10449"
     showguides="true">
    <inkscape:grid
       type="xygrid"
       id="grid9972"
       originx="0"
       originy="0" />
  </sodipodi:namedview>
  
  <g
     id="g10449"
     transform="matrix(0.95173205,0,0,0.95115787,13.901174,12.168794)"
     style="stroke-width:1.05103">
    <g
       id="path10026"
       inkscape:transform-center-x="-0.59233046"
       inkscape:transform-center-y="-20.347403"
       transform="matrix(1.3807551,0,0,1.2700888,273.60014,263.99768)" />
    <g
       id="g11314"
       transform="matrix(1.5092301,0,0,1.3955555,36.774048,-9.4503933)"
       style="stroke-width:50.6951" />
    <path
       id="path501"
       style="color:#000000;fill:#000000;stroke-linecap:round;stroke-linejoin:round;-inkscape-stroke:none"
       d="m 573.78125,71.326172 c -11.14983,0.0041 -21.84136,4.437288 -29.72266,12.324219 L 269.17773,358.69727 201.88007,226.17417 c -16.41326,-16.42281 -43.03211,-16.43069 -59.45508,-0.0176 -16.42281,16.41326 -16.43068,43.03211 -0.0176,59.45508 l 97.034,162.277 c 16.42109,16.42734 43.05156,16.42734 59.47265,0 L 603.53125,143.08789 c 16.41439,-16.4232 16.40651,-43.04355 -0.0176,-59.457031 -7.88689,-7.88216 -18.58202,-12.308309 -29.73242,-12.304687 z M 297.41602,-12.826172 C 216.90703,-11.965911 137.45719,19.625316 77.640625,79.496094 -23.103069,180.33109 -43.683279,336.82447 27.546875,460.31055 98.777031,583.79662 244.53398,644.23617 382.17383,607.32227 519.81368,570.40835 615.82422,445.15088 615.82422,302.57422 c -1.6e-4,-23.21855 -18.82247,-42.04086 -42.04102,-42.04102 -23.21931,-9.2e-4 -42.04281,18.82171 -42.04297,42.04102 0,104.9608 -70.10118,196.38166 -171.34765,223.53515 C 259.14611,553.26287 152.80736,509.18649 100.38086,418.29883 47.954364,327.41117 62.989814,213.1262 137.12305,138.92578 211.25628,64.725365 325.35936,49.693075 416.14258,102.1543 c 20.1039,11.61703 45.81879,4.73687 57.43554,-15.367191 C 485.19415,66.68416 478.31507,40.97088 458.21289,29.353516 408.08311,0.38483622 352.50111,-13.414771 297.41602,-12.826172 Z"
       sodipodi:nodetypes="scccccccccsssssscccssscscs" />
  </g>
</svg>