<svg height="200px" width="200px" version="1.1" id="_x32_" xmlns="http://www.w3.org/2000/svg" xmlns:xlink="http://www.w3.org/1999/xlink" viewBox="0 0 512 512" xml:space="preserve" fill="#ff0000" stroke="#ff0000"><g id="SVGRepo_bgCarrier" stroke-width="0"></g><g id="SVGRepo_tracerCarrier" stroke-linecap="round" stroke-linejoin="round"></g><g id="SVGRepo_iconCarrier"> <style type="text/css"> .st0{fill:#eb0000;} </style> <g> <path class="st0" d="M410.886,43.93H301.533C299.778,19.793,280.576,0.093,256.005,0c-24.598,0.093-43.8,19.793-45.556,43.93 H101.115c-22.787,0-41.407,18.628-41.407,41.398v1.792v15.543v14.822c0,5.692,4.648,10.35,10.34,10.35h0.674l23.859,342.87 C96.152,493.408,116.075,512,138.853,512h75.745c22.76,0,60.027,0,82.814,0h75.726c22.769,0,42.701-18.592,44.281-41.296 l23.84-342.87h0.675c5.702,0,10.358-4.658,10.358-10.35v-14.822V87.12v-1.792C452.292,62.558,433.654,43.93,410.886,43.93z"></path> </g> </g></svg>