<!DOCTYPE svg PUBLIC "-//W3C//DTD SVG 1.1//EN" "http://www.w3.org/Graphics/SVG/1.1/DTD/svg11.dtd">
<!-- Uploaded to: SVG Repo, www.svgrepo.com, Transformed by: SVG Repo Mixer Tools -->
<svg version="1.1" id="Layer_1" xmlns="http://www.w3.org/2000/svg" xmlns:xlink="http://www.w3.org/1999/xlink" viewBox="0 0 512 512" xml:space="preserve" width="800px" height="800px" fill="#000000">
<g id="SVGRepo_bgCarrier" stroke-width="0"/>
<g id="SVGRepo_tracerCarrier" stroke-linecap="round" stroke-linejoin="round"/>
<g id="SVGRepo_iconCarrier"> <path style="fill:#ffffff;" d="M344.275,17.655c-82.746,0-150.069,67.322-150.069,150.069s67.322,150.069,150.069,150.069 s150.069-67.322,150.069-150.069S427.022,17.655,344.275,17.655z"/> <path style="fill:#dedede;" d="M480.86,105.903c2.933,11.317,4.657,23.116,4.657,35.338c0,77.879-63.362,141.241-141.241,141.241 s-141.241-63.362-141.241-141.241c0-12.222,1.724-24.021,4.655-35.338c-8.58,18.879-13.483,39.768-13.483,61.821 c0,82.746,67.322,150.069,150.069,150.069s150.069-67.322,150.069-150.069C494.344,145.672,489.442,124.782,480.86,105.903z"/> <rect x="191.447" y="261.537" transform="matrix(-0.7071 -0.7071 0.7071 -0.7071 142.7819 664.9218)" style="fill:#5B5D6E;" width="35.307" height="82.706"/> <path style="fill:#707487;" d="M344.275,335.448c-92.482,0-167.724-75.242-167.724-167.724S251.792,0,344.275,0 S512,75.242,512,167.724S436.758,335.448,344.275,335.448z M344.275,26.483c-77.879,0-141.241,63.362-141.241,141.241 s63.362,141.241,141.241,141.241s141.241-63.362,141.241-141.241S422.155,26.483,344.275,26.483z"/> <path style="fill:#959CB3;" d="M198.46,325.535l-12-11.991c-5.146-5.146-12.341-7.785-19.543-7.75 c-7.276,0.233-14.211,3.482-19.03,8.94L2.211,479.672c-3.086,3.5-2.922,8.793,0.375,12.086l17.655,17.655 c1.715,1.716,3.978,2.586,6.241,2.586c2.082,0,4.168-0.733,5.845-2.216l164.936-145.673c5.457-4.819,8.715-11.75,8.94-19.026 C206.43,337.811,203.607,330.681,198.46,325.535z"/> <path style="fill:#6b6b6b;" d="M344.275,225.103c-7.315,0-13.241-5.931-13.241-13.241v-9.241c0-11.362,8.823-21,20.086-21.949 c28.337-2.37,50.535-19.698,50.535-39.431c0-21.535-26.276-39.724-57.379-39.724s-57.379,18.189-57.379,39.724 c0,3.474,0.668,6.922,1.992,10.25c2.694,6.793-0.629,14.492-7.431,17.19c-6.776,2.673-14.492-0.629-17.19-7.431 c-2.557-6.449-3.854-13.181-3.854-20.009c0-36.509,37.621-66.207,83.862-66.207s83.862,29.698,83.862,66.207 c0,32.828-30.073,60.38-70.621,65.388v5.233C357.517,219.172,351.59,225.103,344.275,225.103z"/> <circle style="fill:#6b6b6b;" cx="344.275" cy="256" r="13.241"/> <polygon style="fill:#707487;" points="14.993,465.201 46.797,497.004 182.735,376.942 135.055,329.262 "/> </g>
</svg>